<svg width="84" height="84" viewBox="0 0 84 84" fill="none" xmlns="http://www.w3.org/2000/svg">
<mask id="path-1-inside-1_1_215" fill="white">
<path fill-rule="evenodd" clip-rule="evenodd" d="M42 83.215C64.7624 83.215 83.215 64.7624 83.215 42C83.215 19.2376 64.7624 0.785047 42 0.785047C19.2376 0.785047 0.785047 19.2376 0.785047 42C0.785047 64.7624 19.2376 83.215 42 83.215ZM42 84C65.196 84 84 65.196 84 42C84 18.804 65.196 0 42 0C18.804 0 0 18.804 0 42C0 65.196 18.804 84 42 84Z"/>
</mask>
<path fill-rule="evenodd" clip-rule="evenodd" d="M42 83.215C64.7624 83.215 83.215 64.7624 83.215 42C83.215 19.2376 64.7624 0.785047 42 0.785047C19.2376 0.785047 0.785047 19.2376 0.785047 42C0.785047 64.7624 19.2376 83.215 42 83.215ZM42 84C65.196 84 84 65.196 84 42C84 18.804 65.196 0 42 0C18.804 0 0 18.804 0 42C0 65.196 18.804 84 42 84Z" fill="#6A5D6A"/>
<path d="M82.215 42C82.215 64.2101 64.2101 82.215 42 82.215V84.215C65.3147 84.215 84.215 65.3147 84.215 42H82.215ZM42 1.78505C64.2101 1.78505 82.215 19.7899 82.215 42H84.215C84.215 18.6853 65.3147 -0.214953 42 -0.214953V1.78505ZM1.78505 42C1.78505 19.7899 19.7899 1.78505 42 1.78505V-0.214953C18.6853 -0.214953 -0.214953 18.6853 -0.214953 42H1.78505ZM42 82.215C19.7899 82.215 1.78505 64.2101 1.78505 42H-0.214953C-0.214953 65.3147 18.6853 84.215 42 84.215V82.215ZM83 42C83 64.6437 64.6437 83 42 83V85C65.7482 85 85 65.7482 85 42H83ZM42 1C64.6437 1 83 19.3563 83 42H85C85 18.2518 65.7482 -1 42 -1V1ZM1 42C1 19.3563 19.3563 1 42 1V-1C18.2518 -1 -1 18.2518 -1 42H1ZM42 83C19.3563 83 1 64.6437 1 42H-1C-1 65.7482 18.2518 85 42 85V83Z" fill="black" mask="url(#path-1-inside-1_1_215)"/>
<mask id="mask0_1_215" style="mask-type:alpha" maskUnits="userSpaceOnUse" x="0" y="0" width="84" height="84">
<path d="M42 81.3598C63.7378 81.3598 81.3598 63.7378 81.3598 42C81.3598 20.2622 63.7378 2.64019 42 2.64019C20.2622 2.64019 2.64019 20.2622 2.64019 42C2.64019 63.7378 20.2622 81.3598 42 81.3598ZM83.5 42C83.5 64.9198 64.9198 83.5 42 83.5C19.0802 83.5 0.5 64.9198 0.5 42C0.5 19.0802 19.0802 0.5 42 0.5C64.9198 0.5 83.5 19.0802 83.5 42Z" fill="#F54B31" stroke="black"/>
</mask>
<g mask="url(#mask0_1_215)">
<path d="M-11.6832 -11.6831H41.8207V41.8207H-11.6832V-11.6831Z" fill="#E2521D" stroke="black"/>
</g>
<mask id="path-5-outside-2_1_215" maskUnits="userSpaceOnUse" x="37" y="31" width="9" height="20" fill="black">
<rect fill="white" x="37" y="31" width="9" height="20"/>
<path d="M42.495 50V34.425L39.195 35.45L38.72 33.85L42.995 32.375H44.445V50H42.495Z"/>
</mask>
<path d="M42.495 50V34.425L39.195 35.45L38.72 33.85L42.995 32.375H44.445V50H42.495Z" fill="#E2521D"/>
<path d="M42.495 50H41.495V51H42.495V50ZM42.495 34.425H43.495V33.0673L42.1984 33.47L42.495 34.425ZM39.195 35.45L38.2364 35.7346L38.5246 36.7054L39.4916 36.405L39.195 35.45ZM38.72 33.85L38.3939 32.9047L37.4889 33.2169L37.7614 34.1346L38.72 33.85ZM42.995 32.375V31.375H42.8274L42.6689 31.4297L42.995 32.375ZM44.445 32.375H45.445V31.375H44.445V32.375ZM44.445 50V51H45.445V50H44.445ZM43.495 50V34.425H41.495V50H43.495ZM42.1984 33.47L38.8984 34.495L39.4916 36.405L42.7916 35.38L42.1984 33.47ZM40.1537 35.1654L39.6787 33.5654L37.7614 34.1346L38.2364 35.7346L40.1537 35.1654ZM39.0462 34.7953L43.3212 33.3203L42.6689 31.4297L38.3939 32.9047L39.0462 34.7953ZM42.995 33.375H44.445V31.375H42.995V33.375ZM43.445 32.375V50H45.445V32.375H43.445ZM44.445 49H42.495V51H44.445V49Z" fill="black" mask="url(#path-5-outside-2_1_215)"/>
</svg>
