<svg width="84" height="84" viewBox="0 0 84 84" fill="none" xmlns="http://www.w3.org/2000/svg">
<mask id="path-1-inside-1_1_231" fill="white">
<path fill-rule="evenodd" clip-rule="evenodd" d="M42 83.215C64.7624 83.215 83.215 64.7624 83.215 42C83.215 19.2376 64.7624 0.785047 42 0.785047C19.2376 0.785047 0.785047 19.2376 0.785047 42C0.785047 64.7624 19.2376 83.215 42 83.215ZM42 84C65.196 84 84 65.196 84 42C84 18.804 65.196 0 42 0C18.804 0 0 18.804 0 42C0 65.196 18.804 84 42 84Z"/>
</mask>
<path fill-rule="evenodd" clip-rule="evenodd" d="M42 83.215C64.7624 83.215 83.215 64.7624 83.215 42C83.215 19.2376 64.7624 0.785047 42 0.785047C19.2376 0.785047 0.785047 19.2376 0.785047 42C0.785047 64.7624 19.2376 83.215 42 83.215ZM42 84C65.196 84 84 65.196 84 42C84 18.804 65.196 0 42 0C18.804 0 0 18.804 0 42C0 65.196 18.804 84 42 84Z" fill="#6A5D6A"/>
<path d="M82.215 42C82.215 64.2101 64.2101 82.215 42 82.215V84.215C65.3147 84.215 84.215 65.3147 84.215 42H82.215ZM42 1.78505C64.2101 1.78505 82.215 19.7899 82.215 42H84.215C84.215 18.6853 65.3147 -0.214953 42 -0.214953V1.78505ZM1.78505 42C1.78505 19.7899 19.7899 1.78505 42 1.78505V-0.214953C18.6853 -0.214953 -0.214953 18.6853 -0.214953 42H1.78505ZM42 82.215C19.7899 82.215 1.78505 64.2101 1.78505 42H-0.214953C-0.214953 65.3147 18.6853 84.215 42 84.215V82.215ZM83 42C83 64.6437 64.6437 83 42 83V85C65.7482 85 85 65.7482 85 42H83ZM42 1C64.6437 1 83 19.3563 83 42H85C85 18.2518 65.7482 -1 42 -1V1ZM1 42C1 19.3563 19.3563 1 42 1V-1C18.2518 -1 -1 18.2518 -1 42H1ZM42 83C19.3563 83 1 64.6437 1 42H-1C-1 65.7482 18.2518 85 42 85V83Z" fill="black" mask="url(#path-1-inside-1_1_231)"/>
<mask id="mask0_1_231" style="mask-type:alpha" maskUnits="userSpaceOnUse" x="0" y="0" width="84" height="84">
<path d="M42 81.3598C63.7378 81.3598 81.3598 63.7378 81.3598 42C81.3598 20.2622 63.7378 2.64019 42 2.64019C20.2622 2.64019 2.64019 20.2622 2.64019 42C2.64019 63.7378 20.2622 81.3598 42 81.3598ZM83.5 42C83.5 64.9198 64.9198 83.5 42 83.5C19.0802 83.5 0.5 64.9198 0.5 42C0.5 19.0802 19.0802 0.5 42 0.5C64.9198 0.5 83.5 19.0802 83.5 42Z" fill="#F54B31" stroke="black"/>
</mask>
<g mask="url(#mask0_1_231)">
<path d="M-11.6832 -11.6831H41.8207V41.8207H-11.6832V-11.6831Z" fill="#E2521D" stroke="black"/>
</g>
<mask id="path-5-outside-2_1_231" maskUnits="userSpaceOnUse" x="35" y="31" width="15" height="20" fill="black">
<rect fill="white" x="35" y="31" width="15" height="20"/>
<path d="M36.2171 50V48.475L42.5671 42.875C43.9338 41.675 44.8838 40.675 45.4171 39.875C45.9504 39.075 46.2171 38.2417 46.2171 37.375C46.2171 36.375 45.8754 35.5667 45.1921 34.95C44.5088 34.3333 43.6754 34.025 42.6921 34.025C41.7421 34.025 40.9004 34.2667 40.1671 34.75C39.4504 35.2333 38.7254 35.9917 37.9921 37.025L36.5421 35.975C37.3921 34.7083 38.2921 33.775 39.2421 33.175C40.1921 32.5583 41.3921 32.25 42.8421 32.25C44.4088 32.25 45.7004 32.725 46.7171 33.675C47.7504 34.6083 48.2671 35.8 48.2671 37.25C48.2671 38.45 47.9421 39.5167 47.2921 40.45C46.6421 41.3833 45.4921 42.5833 43.8421 44.05L39.1671 48.2H48.4421V50H36.2171Z"/>
</mask>
<path d="M36.2171 50V48.475L42.5671 42.875C43.9338 41.675 44.8838 40.675 45.4171 39.875C45.9504 39.075 46.2171 38.2417 46.2171 37.375C46.2171 36.375 45.8754 35.5667 45.1921 34.95C44.5088 34.3333 43.6754 34.025 42.6921 34.025C41.7421 34.025 40.9004 34.2667 40.1671 34.75C39.4504 35.2333 38.7254 35.9917 37.9921 37.025L36.5421 35.975C37.3921 34.7083 38.2921 33.775 39.2421 33.175C40.1921 32.5583 41.3921 32.25 42.8421 32.25C44.4088 32.25 45.7004 32.725 46.7171 33.675C47.7504 34.6083 48.2671 35.8 48.2671 37.25C48.2671 38.45 47.9421 39.5167 47.2921 40.45C46.6421 41.3833 45.4921 42.5833 43.8421 44.05L39.1671 48.2H48.4421V50H36.2171Z" fill="#E2521D"/>
<path d="M36.2171 50H35.2171V51H36.2171V50ZM36.2171 48.475L35.5557 47.725L35.2171 48.0236V48.475H36.2171ZM42.5671 42.875L41.9073 42.1236L41.9057 42.125L42.5671 42.875ZM45.4171 39.875L44.585 39.3203L44.585 39.3203L45.4171 39.875ZM45.1921 34.95L45.8621 34.2076L45.8621 34.2076L45.1921 34.95ZM40.1671 34.75L39.6167 33.915L39.6079 33.9209L40.1671 34.75ZM37.9921 37.025L37.4056 37.8349L38.2233 38.4271L38.8076 37.6037L37.9921 37.025ZM36.5421 35.975L35.7117 35.4178L35.1741 36.219L35.9556 36.7849L36.5421 35.975ZM39.2421 33.175L39.7761 34.0206L39.7866 34.0138L39.2421 33.175ZM46.7171 33.675L46.0343 34.4057L46.0405 34.4114L46.0468 34.4171L46.7171 33.675ZM47.2921 40.45L46.4715 39.8785L46.4715 39.8785L47.2921 40.45ZM43.8421 44.05L44.506 44.7979L44.5065 44.7974L43.8421 44.05ZM39.1671 48.2L38.5032 47.4521L36.5343 49.2H39.1671V48.2ZM48.4421 48.2H49.4421V47.2H48.4421V48.2ZM48.4421 50V51H49.4421V50H48.4421ZM37.2171 50V48.475H35.2171V50H37.2171ZM36.8785 49.225L43.2285 43.625L41.9057 42.125L35.5557 47.725L36.8785 49.225ZM43.2269 43.6264C44.612 42.4103 45.6416 41.341 46.2491 40.4297L44.585 39.3203C44.1259 40.009 43.2556 40.9397 41.9073 42.1236L43.2269 43.6264ZM46.2491 40.4297C46.8795 39.4841 47.2171 38.4604 47.2171 37.375H45.2171C45.2171 38.0229 45.0213 38.6659 44.585 39.3203L46.2491 40.4297ZM47.2171 37.375C47.2171 36.1194 46.775 35.0315 45.8621 34.2076L44.5221 35.6924C44.9758 36.1018 45.2171 36.6306 45.2171 37.375H47.2171ZM45.8621 34.2076C44.9817 33.4132 43.9045 33.025 42.6921 33.025V35.025C43.4464 35.025 44.0358 35.2535 44.5221 35.6924L45.8621 34.2076ZM42.6921 33.025C41.5632 33.025 40.5269 33.3152 39.6168 33.915L40.7174 35.585C41.274 35.2181 41.921 35.025 42.6921 35.025V33.025ZM39.6079 33.9209C38.7565 34.4952 37.9501 35.3563 37.1766 36.4463L38.8076 37.6037C39.5008 36.627 40.1444 35.9715 40.7262 35.5791L39.6079 33.9209ZM38.5786 36.2151L37.1286 35.1651L35.9556 36.7849L37.4056 37.8349L38.5786 36.2151ZM37.3725 36.5322C38.171 35.3422 38.978 34.5245 39.7761 34.0205L38.7081 32.3295C37.6062 33.0254 36.6132 34.0744 35.7117 35.4178L37.3725 36.5322ZM39.7866 34.0138C40.5346 33.5282 41.5317 33.25 42.8421 33.25V31.25C41.2525 31.25 39.8495 31.5885 38.6976 32.3362L39.7866 34.0138ZM42.8421 33.25C44.1897 33.25 45.2266 33.6509 46.0343 34.4057L47.3998 32.9443C46.1742 31.7991 44.6278 31.25 42.8421 31.25V33.25ZM46.0468 34.4171C46.8606 35.1521 47.2671 36.0696 47.2671 37.25H49.2671C49.2671 35.5304 48.6403 34.0645 47.3874 32.9329L46.0468 34.4171ZM47.2671 37.25C47.2671 38.2576 46.9981 39.1224 46.4715 39.8785L48.1127 41.0215C48.8861 39.911 49.2671 38.6424 49.2671 37.25H47.2671ZM46.4715 39.8785C45.8909 40.7122 44.813 41.849 43.1777 43.3026L44.5065 44.7974C46.1712 43.3176 47.3933 42.0545 48.1127 41.0215L46.4715 39.8785ZM43.1782 43.3021L38.5032 47.4521L39.831 48.9479L44.506 44.7979L43.1782 43.3021ZM39.1671 49.2H48.4421V47.2H39.1671V49.2ZM47.4421 48.2V50H49.4421V48.2H47.4421ZM48.4421 49H36.2171V51H48.4421V49Z" fill="black" mask="url(#path-5-outside-2_1_231)"/>
</svg>
