<svg width="84" height="84" viewBox="0 0 84 84" fill="none" xmlns="http://www.w3.org/2000/svg">
<mask id="path-1-inside-1_1_223" fill="white">
<path fill-rule="evenodd" clip-rule="evenodd" d="M42 83.215C64.7624 83.215 83.215 64.7624 83.215 42C83.215 19.2376 64.7624 0.785047 42 0.785047C19.2376 0.785047 0.785047 19.2376 0.785047 42C0.785047 64.7624 19.2376 83.215 42 83.215ZM42 84C65.196 84 84 65.196 84 42C84 18.804 65.196 0 42 0C18.804 0 0 18.804 0 42C0 65.196 18.804 84 42 84Z"/>
</mask>
<path fill-rule="evenodd" clip-rule="evenodd" d="M42 83.215C64.7624 83.215 83.215 64.7624 83.215 42C83.215 19.2376 64.7624 0.785047 42 0.785047C19.2376 0.785047 0.785047 19.2376 0.785047 42C0.785047 64.7624 19.2376 83.215 42 83.215ZM42 84C65.196 84 84 65.196 84 42C84 18.804 65.196 0 42 0C18.804 0 0 18.804 0 42C0 65.196 18.804 84 42 84Z" fill="#6A5D6A"/>
<path d="M82.215 42C82.215 64.2101 64.2101 82.215 42 82.215V84.215C65.3147 84.215 84.215 65.3147 84.215 42H82.215ZM42 1.78505C64.2101 1.78505 82.215 19.7899 82.215 42H84.215C84.215 18.6853 65.3147 -0.214953 42 -0.214953V1.78505ZM1.78505 42C1.78505 19.7899 19.7899 1.78505 42 1.78505V-0.214953C18.6853 -0.214953 -0.214953 18.6853 -0.214953 42H1.78505ZM42 82.215C19.7899 82.215 1.78505 64.2101 1.78505 42H-0.214953C-0.214953 65.3147 18.6853 84.215 42 84.215V82.215ZM83 42C83 64.6437 64.6437 83 42 83V85C65.7482 85 85 65.7482 85 42H83ZM42 1C64.6437 1 83 19.3563 83 42H85C85 18.2518 65.7482 -1 42 -1V1ZM1 42C1 19.3563 19.3563 1 42 1V-1C18.2518 -1 -1 18.2518 -1 42H1ZM42 83C19.3563 83 1 64.6437 1 42H-1C-1 65.7482 18.2518 85 42 85V83Z" fill="black" mask="url(#path-1-inside-1_1_223)"/>
<mask id="mask0_1_223" style="mask-type:alpha" maskUnits="userSpaceOnUse" x="0" y="0" width="84" height="84">
<path d="M42 81.3598C63.7378 81.3598 81.3598 63.7378 81.3598 42C81.3598 20.2622 63.7378 2.64019 42 2.64019C20.2622 2.64019 2.64019 20.2622 2.64019 42C2.64019 63.7378 20.2622 81.3598 42 81.3598ZM83.5 42C83.5 64.9198 64.9198 83.5 42 83.5C19.0802 83.5 0.5 64.9198 0.5 42C0.5 19.0802 19.0802 0.5 42 0.5C64.9198 0.5 83.5 19.0802 83.5 42Z" fill="#F54B31" stroke="black"/>
</mask>
<g mask="url(#mask0_1_223)">
<path d="M-11.6832 -11.6832H41.8207V41.8206H-11.6832V-11.6832Z" fill="#E2521D" stroke="black"/>
</g>
<mask id="path-5-outside-2_1_223" maskUnits="userSpaceOnUse" x="34" y="31" width="15" height="21" fill="black">
<rect fill="white" x="34" y="31" width="15" height="21"/>
<path d="M42.109 50.3C39.359 50.3 37.184 49.2583 35.584 47.175L37.009 45.9C38.4257 47.6333 40.134 48.5 42.134 48.5C43.2173 48.5 44.1257 48.1833 44.859 47.55C45.5923 46.9167 45.959 46.0833 45.959 45.05C45.959 43.9833 45.509 43.1583 44.609 42.575C43.709 41.975 42.5257 41.675 41.059 41.675H39.934L39.534 40.5L45.059 34.275H36.509V32.5H47.684V33.95L42.184 40.05C43.8507 40.1833 45.2257 40.6667 46.309 41.5C47.409 42.3167 47.959 43.4917 47.959 45.025C47.959 46.5583 47.3923 47.825 46.259 48.825C45.1423 49.8083 43.759 50.3 42.109 50.3Z"/>
</mask>
<path d="M42.109 50.3C39.359 50.3 37.184 49.2583 35.584 47.175L37.009 45.9C38.4257 47.6333 40.134 48.5 42.134 48.5C43.2173 48.5 44.1257 48.1833 44.859 47.55C45.5923 46.9167 45.959 46.0833 45.959 45.05C45.959 43.9833 45.509 43.1583 44.609 42.575C43.709 41.975 42.5257 41.675 41.059 41.675H39.934L39.534 40.5L45.059 34.275H36.509V32.5H47.684V33.95L42.184 40.05C43.8507 40.1833 45.2257 40.6667 46.309 41.5C47.409 42.3167 47.959 43.4917 47.959 45.025C47.959 46.5583 47.3923 47.825 46.259 48.825C45.1423 49.8083 43.759 50.3 42.109 50.3Z" fill="#E2521D"/>
<path d="M35.584 47.175L34.9172 46.4298L34.2258 47.0483L34.7909 47.7841L35.584 47.175ZM37.009 45.9L37.7833 45.2672L37.1215 44.4575L36.3422 45.1548L37.009 45.9ZM44.859 47.55L45.5126 48.3068L45.5126 48.3068L44.859 47.55ZM44.609 42.575L44.0542 43.4071L44.0651 43.4142L44.609 42.575ZM39.934 41.675L38.9873 41.9973L39.2181 42.675H39.934V41.675ZM39.534 40.5L38.7861 39.8362L38.3998 40.2714L38.5873 40.8223L39.534 40.5ZM45.059 34.275L45.8069 34.9388L47.2836 33.275H45.059V34.275ZM36.509 34.275H35.509V35.275H36.509V34.275ZM36.509 32.5V31.5H35.509V32.5H36.509ZM47.684 32.5H48.684V31.5H47.684V32.5ZM47.684 33.95L48.4267 34.6196L48.684 34.3343V33.95H47.684ZM42.184 40.05L41.4413 39.3804L40.0844 40.8852L42.1042 41.0468L42.184 40.05ZM46.309 41.5L45.6993 42.2926L45.706 42.2978L45.7129 42.3029L46.309 41.5ZM46.259 48.825L46.9199 49.5755L46.9206 49.5748L46.259 48.825ZM42.109 49.3C39.6528 49.3 37.7777 48.3896 36.3771 46.5659L34.7909 47.7841C36.5903 50.127 39.0652 51.3 42.109 51.3V49.3ZM36.2508 47.9202L37.6758 46.6452L36.3422 45.1548L34.9172 46.4298L36.2508 47.9202ZM36.2347 46.5328C37.8157 48.4672 39.7956 49.5 42.134 49.5V47.5C40.4724 47.5 39.0356 46.7995 37.7833 45.2672L36.2347 46.5328ZM42.134 49.5C43.427 49.5 44.5759 49.1158 45.5126 48.3068L44.2054 46.7932C43.6754 47.2509 43.0076 47.5 42.134 47.5V49.5ZM45.5126 48.3068C46.482 47.4697 46.959 46.352 46.959 45.05H44.959C44.959 45.8146 44.7027 46.3637 44.2054 46.7932L45.5126 48.3068ZM46.959 45.05C46.959 43.6421 46.3354 42.5023 45.1529 41.7358L44.0651 43.4142C44.6826 43.8144 44.959 44.3245 44.959 45.05H46.959ZM45.1637 41.7429C44.0504 41.0008 42.6546 40.675 41.059 40.675V42.675C42.3967 42.675 43.3675 42.9492 44.0543 43.407L45.1637 41.7429ZM41.059 40.675H39.934V42.675H41.059V40.675ZM40.8806 41.3527L40.4806 40.1777L38.5873 40.8223L38.9873 41.9973L40.8806 41.3527ZM40.2819 41.1638L45.8069 34.9388L44.3111 33.6112L38.7861 39.8362L40.2819 41.1638ZM45.059 33.275H36.509V35.275H45.059V33.275ZM37.509 34.275V32.5H35.509V34.275H37.509ZM36.509 33.5H47.684V31.5H36.509V33.5ZM46.684 32.5V33.95H48.684V32.5H46.684ZM46.9413 33.2804L41.4413 39.3804L42.9267 40.7196L48.4267 34.6196L46.9413 33.2804ZM42.1042 41.0468C43.6215 41.1682 44.8003 41.6011 45.6993 42.2926L46.9187 40.7074C45.651 39.7322 44.0798 39.1985 42.2637 39.0532L42.1042 41.0468ZM45.7129 42.3029C46.5258 42.9065 46.959 43.7647 46.959 45.025H48.959C48.959 43.2186 48.2921 41.7269 46.9051 40.6971L45.7129 42.3029ZM46.959 45.025C46.959 46.2762 46.512 47.2681 45.5974 48.0752L46.9206 49.5748C48.2726 48.3819 48.959 46.8405 48.959 45.025H46.959ZM45.5981 48.0745C44.6844 48.8792 43.5442 49.3 42.109 49.3V51.3C43.9738 51.3 45.6003 50.7375 46.9199 49.5755L45.5981 48.0745Z" fill="black" mask="url(#path-5-outside-2_1_223)"/>
</svg>
