<svg width="84" height="84" viewBox="0 0 84 84" fill="none" xmlns="http://www.w3.org/2000/svg">
<mask id="path-1-inside-1_1_239" fill="white">
<path fill-rule="evenodd" clip-rule="evenodd" d="M42 83.215C64.7624 83.215 83.215 64.7624 83.215 42C83.215 19.2376 64.7624 0.785047 42 0.785047C19.2376 0.785047 0.785047 19.2376 0.785047 42C0.785047 64.7624 19.2376 83.215 42 83.215ZM42 84C65.196 84 84 65.196 84 42C84 18.804 65.196 0 42 0C18.804 0 0 18.804 0 42C0 65.196 18.804 84 42 84Z"/>
</mask>
<path fill-rule="evenodd" clip-rule="evenodd" d="M42 83.215C64.7624 83.215 83.215 64.7624 83.215 42C83.215 19.2376 64.7624 0.785047 42 0.785047C19.2376 0.785047 0.785047 19.2376 0.785047 42C0.785047 64.7624 19.2376 83.215 42 83.215ZM42 84C65.196 84 84 65.196 84 42C84 18.804 65.196 0 42 0C18.804 0 0 18.804 0 42C0 65.196 18.804 84 42 84Z" fill="#6A5D6A"/>
<path d="M82.215 42C82.215 64.2101 64.2101 82.215 42 82.215V84.215C65.3147 84.215 84.215 65.3147 84.215 42H82.215ZM42 1.78505C64.2101 1.78505 82.215 19.7899 82.215 42H84.215C84.215 18.6853 65.3147 -0.214953 42 -0.214953V1.78505ZM1.78505 42C1.78505 19.7899 19.7899 1.78505 42 1.78505V-0.214953C18.6853 -0.214953 -0.214953 18.6853 -0.214953 42H1.78505ZM42 82.215C19.7899 82.215 1.78505 64.2101 1.78505 42H-0.214953C-0.214953 65.3147 18.6853 84.215 42 84.215V82.215ZM83 42C83 64.6437 64.6437 83 42 83V85C65.7482 85 85 65.7482 85 42H83ZM42 1C64.6437 1 83 19.3563 83 42H85C85 18.2518 65.7482 -1 42 -1V1ZM1 42C1 19.3563 19.3563 1 42 1V-1C18.2518 -1 -1 18.2518 -1 42H1ZM42 83C19.3563 83 1 64.6437 1 42H-1C-1 65.7482 18.2518 85 42 85V83Z" fill="black" mask="url(#path-1-inside-1_1_239)"/>
<mask id="mask0_1_239" style="mask-type:alpha" maskUnits="userSpaceOnUse" x="0" y="0" width="84" height="84">
<path d="M42 81.3598C63.7378 81.3598 81.3598 63.7378 81.3598 42C81.3598 20.2622 63.7378 2.64019 42 2.64019C20.2622 2.64019 2.64019 20.2622 2.64019 42C2.64019 63.7378 20.2622 81.3598 42 81.3598ZM83.5 42C83.5 64.9198 64.9198 83.5 42 83.5C19.0802 83.5 0.5 64.9198 0.5 42C0.5 19.0802 19.0802 0.5 42 0.5C64.9198 0.5 83.5 19.0802 83.5 42Z" fill="#F54B31" stroke="black"/>
</mask>
<g mask="url(#mask0_1_239)">
<path d="M-11.6832 -11.6832H41.8207V41.8206H-11.6832V-11.6832Z" fill="#E2521D" stroke="black"/>
</g>
<mask id="path-5-outside-2_1_239" maskUnits="userSpaceOnUse" x="34" y="31" width="17" height="20" fill="black">
<rect fill="white" x="34" y="31" width="17" height="20"/>
<path d="M44.9138 50V45.85H35.6888L35.1888 44.425L45.0888 32.375H46.8138V44.2H49.5388V45.85H46.8138V50H44.9138ZM37.5638 44.2H44.9138V35.175L37.5638 44.2Z"/>
</mask>
<path d="M44.9138 50V45.85H35.6888L35.1888 44.425L45.0888 32.375H46.8138V44.2H49.5388V45.85H46.8138V50H44.9138ZM37.5638 44.2H44.9138V35.175L37.5638 44.2Z" fill="#E2521D"/>
<path d="M44.9138 50H43.9138V51H44.9138V50ZM44.9138 45.85H45.9138V44.85H44.9138V45.85ZM35.6888 45.85L34.7452 46.1811L34.9799 46.85H35.6888V45.85ZM35.1888 44.425L34.4161 43.7902L34.0588 44.225L34.2452 44.7561L35.1888 44.425ZM45.0888 32.375V31.375H44.6161L44.3161 31.7402L45.0888 32.375ZM46.8138 32.375H47.8138V31.375H46.8138V32.375ZM46.8138 44.2H45.8138V45.2H46.8138V44.2ZM49.5388 44.2H50.5388V43.2H49.5388V44.2ZM49.5388 45.85V46.85H50.5388V45.85H49.5388ZM46.8138 45.85V44.85H45.8138V45.85H46.8138ZM46.8138 50V51H47.8138V50H46.8138ZM37.5638 44.2L36.7884 43.5685L35.4597 45.2H37.5638V44.2ZM44.9138 44.2V45.2H45.9138V44.2H44.9138ZM44.9138 35.175H45.9138V32.3635L44.1384 34.5435L44.9138 35.175ZM45.9138 50V45.85H43.9138V50H45.9138ZM44.9138 44.85H35.6888V46.85H44.9138V44.85ZM36.6324 45.5189L36.1324 44.0939L34.2452 44.7561L34.7452 46.1811L36.6324 45.5189ZM35.9614 45.0598L45.8614 33.0098L44.3161 31.7402L34.4161 43.7902L35.9614 45.0598ZM45.0888 33.375H46.8138V31.375H45.0888V33.375ZM45.8138 32.375V44.2H47.8138V32.375H45.8138ZM46.8138 45.2H49.5388V43.2H46.8138V45.2ZM48.5388 44.2V45.85H50.5388V44.2H48.5388ZM49.5388 44.85H46.8138V46.85H49.5388V44.85ZM45.8138 45.85V50H47.8138V45.85H45.8138ZM46.8138 49H44.9138V51H46.8138V49ZM37.5638 45.2H44.9138V43.2H37.5638V45.2ZM45.9138 44.2V35.175H43.9138V44.2H45.9138ZM44.1384 34.5435L36.7884 43.5685L38.3392 44.8315L45.6892 35.8065L44.1384 34.5435Z" fill="black" mask="url(#path-5-outside-2_1_239)"/>
</svg>
